<svg width="38" height="28" viewBox="0 0 38 28" fill="none" xmlns="http://www.w3.org/2000/svg">
<path d="M29.8419 27.7651C30.3118 28.105 30.9682 27.9995 31.308 27.5296L36.8457 19.8722C37.1856 19.4023 37.0801 18.7459 36.6102 18.4061C36.1403 18.0663 35.4839 18.1717 35.1441 18.6416L30.2216 25.4482L23.4151 20.5257C22.9452 20.1859 22.2888 20.2914 21.9489 20.7613C21.6091 21.2312 21.7146 21.8876 22.1845 22.2274L29.8419 27.7651ZM0.166504 1.49121L0.33304 2.52792C8.71562 1.18135 15.2451 3.06786 20.029 7.31739C24.8449 11.5954 28.0236 18.3855 29.4205 27.0808L30.4572 26.9143L31.4939 26.7478C30.0508 17.7643 26.7234 10.4551 21.4236 5.74736C16.0918 1.01113 8.89587 -0.974525 -3.17528e-05 0.454502L0.166504 1.49121Z" fill="#DADADA"/>
</svg>
