<svg width="85" height="85" viewBox="0 0 85 85" fill="none" xmlns="http://www.w3.org/2000/svg">
<path d="M70.8339 12.396H19.4797C18.3818 12.396 17.3193 12.9272 16.6464 13.8127L11.3339 20.896C9.59851 23.2335 11.263 26.5627 14.1672 26.5627H65.5214C66.6193 26.5627 67.6818 26.0314 68.3547 25.146L73.6672 18.0627C75.4026 15.7252 73.738 12.396 70.8339 12.396Z" fill="currentColor"/>
<path d="M14.1672 35.4165H65.5214C66.6193 35.4165 67.6818 35.9478 68.3547 36.8332L73.6672 43.9165C75.4026 46.254 73.738 49.5832 70.8339 49.5832H19.4797C18.3818 49.5832 17.3193 49.0519 16.6464 48.1665L11.3339 41.0832C9.59851 38.7457 11.263 35.4165 14.1672 35.4165Z" fill="currentColor"/>
<path d="M70.8339 58.4375H19.4797C18.3818 58.4375 17.3193 58.9687 16.6464 59.8542L11.3339 66.9375C9.59851 69.275 11.263 72.6042 14.1672 72.6042H65.5214C66.6193 72.6042 67.6818 72.0729 68.3547 71.1875L73.6672 64.1042C75.4026 61.7667 73.738 58.4375 70.8339 58.4375Z" fill="currentColor"/>
</svg>
