<svg width="2475" height="1684" viewBox="0 0 2475 1684" fill="none" xmlns="http://www.w3.org/2000/svg">
<path d="M1810.57 244.779L2475 0C2473.43 8.6708 2427.54 201.511 2246.51 335.452L1810.57 244.779Z" fill="#68BE37"/>
<path d="M1810.57 244.78L2246.51 335.453C2203.07 367.598 2151.84 396.348 2091.54 418.339C2090.35 418.767 2089.15 419.223 2087.92 419.651L2086.5 420.193L1634.5 593.438L1573.66 556.188L1810.57 244.78Z" fill="#52AE38"/>
<path d="M2313.39 379.036C2287.07 415.744 2182.7 611.066 1998.59 692.098L1701.36 634.368L1634.5 593.439L2086.5 420.194L2087.92 419.652C2089.15 419.224 2090.35 418.768 2091.55 418.34C2091.55 418.34 2199.3 408.5 2313.39 379.036Z" fill="#2A7D28"/>
<path d="M1998.59 692.097L2109.29 717.909C2109.29 717.909 2017.19 821.16 1873.78 914.914L1701.36 893.151V844.549L1998.59 692.097Z" fill="#207A21"/>
<path d="M1998.59 692.096L1701.36 844.549V634.367L1998.59 692.096Z" fill="#19621C"/>
<path d="M1701.36 893.149V1188.53L1540.18 1099.02V942.636C1647.34 913.229 1701.36 893.149 1701.36 893.149Z" fill="#1F6C20"/>
<path d="M1701.36 844.549V893.151C1701.36 893.151 1647.34 913.23 1540.18 942.637V731.457L1701.36 634.367V844.549Z" fill="#2A7D26"/>
<path d="M1573.67 556.185L1634.5 593.436L1701.36 634.365L1540.18 731.455L1237.5 548.085V350.425L1400.22 450.025L1573.67 556.185Z" fill="#53AF36"/>
<path d="M1701.36 1188.53L1612.03 1255.1L1452.56 1373.24L1323.9 1469.42L1237.5 1533.99V1315.71L1540.18 1099.03L1701.36 1188.53Z" fill="#1E681F"/>
<path d="M1628.06 1278.66L1697 1380.08L1637.01 1638.18L1490.89 1469.02L1628.06 1278.66Z" fill="#18691F"/>
<path d="M1612.03 1255.1L1628.06 1278.66L1490.89 1469.02L1452.56 1373.24L1612.03 1255.1Z" fill="#12581B"/>
<path d="M1540.18 942.637V1099.02L1237.5 1315.71V1014.37C1364.23 988.33 1465.2 963.201 1540.18 942.637Z" fill="#13591B"/>
<path d="M1540.18 731.457V942.637C1465.2 963.201 1364.23 988.33 1237.5 1014.37V807.526L1540.18 731.457Z" fill="#36952D"/>
<path d="M1540.18 731.457L1237.5 807.526V548.087L1540.18 731.457Z" fill="#176518"/>
<path d="M1400.22 258.9V450.029L1237.5 350.429V118.057L1400.22 258.9Z" fill="#1E711D"/>
<path d="M1323.9 1469.42L1237.5 1683.7V1533.99L1323.9 1469.42Z" fill="#13561A"/>
<path d="M1237.5 1533.99V1683.7L1151.11 1469.42L1237.5 1533.99Z" fill="#1A6A21"/>
<path d="M1237.5 1315.71V1533.99L1151.11 1469.42L1022.47 1373.24L862.973 1255.1L773.67 1188.53L934.821 1099.03L1237.5 1315.71Z" fill="#419A32"/>
<path d="M1237.5 1014.37V1315.71L934.821 1099.03V942.609C1009.81 963.203 1110.78 988.331 1237.5 1014.37Z" fill="#1F7022"/>
<path d="M1237.5 807.526V1014.37C1110.78 988.33 1009.81 963.201 934.821 942.608V731.457L1237.5 807.526Z" fill="#4CA835"/>
<path d="M1237.5 548.087V807.526L934.821 731.457L1237.5 548.087Z" fill="#277F25"/>
<path d="M1237.5 548.085L934.821 731.455L773.67 634.365L840.526 593.436L901.364 556.214L1074.81 450.025L1237.5 350.425V548.085Z" fill="#75CB41"/>
<path d="M1237.5 118.057V350.429L1074.81 450.029V258.9L1237.5 118.057Z" fill="#379E2D"/>
<path d="M1022.47 1373.24L984.108 1469.02L846.973 1278.66L862.974 1255.1L1022.47 1373.24Z" fill="#207022"/>
<path d="M846.971 1278.66L984.106 1469.02L837.986 1638.18L778.004 1380.08L846.971 1278.66Z" fill="#319329"/>
<path d="M934.821 942.607V1099.02L773.67 1188.53V893.149C773.67 893.149 827.663 913.229 934.821 942.607Z" fill="#5FBB3D"/>
<path d="M934.821 731.457V942.609C827.663 913.231 773.67 893.151 773.67 893.151V634.367L934.821 731.457Z" fill="#6AC33E"/>
<path d="M901.365 556.216L840.527 593.438L388.504 420.193L387.078 419.651C385.851 419.223 384.653 418.767 383.455 418.339C323.188 396.348 271.961 367.598 228.522 335.453L664.429 244.78L901.365 556.216Z" fill="#51AE38"/>
<path d="M840.526 593.439L773.669 634.368L476.409 692.098C292.297 611.066 187.934 415.744 161.636 379.036C275.697 408.5 383.455 418.34 383.455 418.34C384.653 418.768 385.851 419.224 387.077 419.652L388.503 420.194L840.526 593.439Z" fill="#36912E"/>
<path d="M773.668 844.549V893.151L601.222 914.914C457.811 821.16 365.741 717.909 365.741 717.909L476.408 692.097L773.668 844.549Z" fill="#34962B"/>
<path d="M773.668 634.367V844.549L476.407 692.096L773.668 634.367Z" fill="#257B24"/>
<path d="M664.429 244.779L228.521 335.452C47.4612 201.539 1.56873 8.6708 0 0L664.429 244.779Z" fill="#6ABF37"/>
</svg>
