<svg width="38" height="28" viewBox="0 0 38 28" fill="none" xmlns="http://www.w3.org/2000/svg">
<path d="M7.20306 27.7651C6.73317 28.105 6.07676 27.9995 5.73694 27.5296L0.199186 19.8722C-0.140637 19.4023 -0.0351922 18.7459 0.434703 18.4061C0.904598 18.0663 1.56101 18.1717 1.90083 18.6416L6.82328 25.4482L13.6299 20.5257C14.0998 20.1859 14.7562 20.2914 15.096 20.7613C15.4358 21.2312 15.3304 21.8876 14.8605 22.2274L7.20306 27.7651ZM36.8784 1.49121L36.7119 2.52792C28.3293 1.18135 21.7998 3.06786 17.0159 7.31739C12.2 11.5954 9.02127 18.3855 7.62447 27.0808L6.58776 26.9143L5.55105 26.7478C6.99414 17.7643 10.3215 10.4551 15.6213 5.74736C20.9531 1.01113 28.149 -0.974525 37.045 0.454502L36.8784 1.49121Z" fill="#DADADA"/>
</svg>
