<svg width="25" height="35" viewBox="0 0 25 35" fill="none" xmlns="http://www.w3.org/2000/svg">
<path d="M12.2998 0.599609C18.7616 0.599609 24 5.83642 24 12.2949C24 17.7647 21.0193 23.3032 17.9639 27.5283C16.4442 29.6297 14.9232 31.383 13.7822 32.6104C13.2124 33.2233 12.7381 33.7043 12.4072 34.0312C12.3701 34.0679 12.3332 34.102 12.2998 34.1348C12.2664 34.1021 12.2304 34.0679 12.1934 34.0312C11.8624 33.7043 11.3875 33.2236 10.8174 32.6104C9.67647 31.3831 8.15538 29.6306 6.63574 27.5293C3.58021 23.3043 0.599621 17.765 0.599609 12.2949C0.599609 5.83649 5.8381 0.599715 12.2998 0.599609Z" fill="white" stroke="#EB2C2C" stroke-width="1.2"/>
<path d="M12.2998 5.12744C15.8002 5.12744 18.6376 7.96414 18.6377 11.4624C18.6377 14.9607 15.8002 17.7974 12.2998 17.7974C8.79945 17.7973 5.96191 14.9607 5.96191 11.4624C5.962 7.96417 8.79951 5.1275 12.2998 5.12744Z" fill="#222222" stroke="#EB2C2C" stroke-width="1.2"/>
</svg>
