<svg width="391" height="50" viewBox="0 0 391 50" fill="none" xmlns="http://www.w3.org/2000/svg">
<rect width="391" height="50" rx="25" fill="#DDDCDC"/>
<path d="M42.4104 25.4091C42.4104 24.1328 42.3007 22.9055 42.0968 21.7272H25.8521V28.69H35.1347C34.7349 30.94 33.5198 32.8464 31.693 34.1228V38.6391H37.2673C40.5288 35.5055 42.4104 30.8909 42.4104 25.4091Z" fill="#4285F4"/>
<path d="M25.8522 43C30.5093 43 34.4136 41.3881 37.2673 38.6391L31.693 34.1227C30.1486 35.2027 28.1728 35.8408 25.8522 35.8408C21.3597 35.8408 17.5574 32.6745 16.201 28.42H10.4385V33.0836C13.2767 38.9664 19.1097 43 25.8522 43Z" fill="#34A853"/>
<path d="M16.201 28.42C15.856 27.34 15.6601 26.1864 15.6601 25C15.6601 23.8136 15.856 22.66 16.201 21.58V16.9164H10.4385C9.27048 19.3464 8.604 22.0955 8.604 25C8.604 27.9045 9.27048 30.6536 10.4385 33.0836L16.201 28.42Z" fill="#FBBC04"/>
<path d="M25.8522 14.1591C28.3845 14.1591 30.6581 15.0672 32.4457 16.8509L37.3929 11.6881C34.4058 8.78362 30.5013 7 25.8522 7C19.1097 7 13.2767 11.0336 10.4385 16.9164L16.201 21.58C17.5574 17.3255 21.3597 14.1591 25.8522 14.1591Z" fill="#E94235"/>
<path d="M64.856 34.297C63.272 34.297 61.886 34.018 60.698 33.46C59.51 32.884 58.592 32.083 57.944 31.057C57.296 30.031 56.972 28.834 56.972 27.466C56.972 25.702 57.386 24.118 58.214 22.714C59.042 21.292 60.203 20.185 61.697 19.393C63.191 18.583 64.892 18.178 66.8 18.178C68.258 18.178 69.536 18.43 70.634 18.934C71.75 19.438 72.587 20.149 73.145 21.067L70.094 23.497C69.302 22.273 68.114 21.661 66.53 21.661C65.486 21.661 64.559 21.904 63.749 22.39C62.957 22.876 62.345 23.542 61.913 24.388C61.481 25.234 61.265 26.179 61.265 27.223C61.265 28.321 61.625 29.194 62.345 29.842C63.065 30.472 64.037 30.787 65.261 30.787C66.791 30.787 68.096 30.184 69.176 28.978L71.741 31.462C70.859 32.452 69.851 33.172 68.717 33.622C67.583 34.072 66.296 34.297 64.856 34.297ZM81.2539 34.297C79.6699 34.297 78.2929 34.009 77.1229 33.433C75.9529 32.857 75.0529 32.056 74.4229 31.03C73.7929 30.004 73.4779 28.816 73.4779 27.466C73.4779 25.702 73.8919 24.118 74.7199 22.714C75.5659 21.292 76.7269 20.185 78.2029 19.393C79.6969 18.583 81.3799 18.178 83.2519 18.178C84.8539 18.178 86.2399 18.466 87.4099 19.042C88.5799 19.618 89.4799 20.419 90.1099 21.445C90.7399 22.471 91.0549 23.659 91.0549 25.009C91.0549 26.773 90.6409 28.366 89.8129 29.788C88.9849 31.192 87.8239 32.299 86.3299 33.109C84.8359 33.901 83.1439 34.297 81.2539 34.297ZM81.6319 30.814C82.6759 30.814 83.5759 30.562 84.3319 30.058C85.1059 29.554 85.6999 28.879 86.1139 28.033C86.5279 27.187 86.7349 26.26 86.7349 25.252C86.7349 24.172 86.3929 23.308 85.7089 22.66C85.0429 21.994 84.1069 21.661 82.9009 21.661C81.8569 21.661 80.9479 21.913 80.1739 22.417C79.3999 22.921 78.8059 23.605 78.3919 24.469C77.9779 25.315 77.7709 26.242 77.7709 27.25C77.7709 28.33 78.1129 29.194 78.7969 29.842C79.4809 30.49 80.4259 30.814 81.6319 30.814ZM110.409 18.475L107.331 34H103.794L98.394 25.252L96.666 34H92.454L95.559 18.475H99.069L104.469 27.25L106.224 18.475H110.409ZM116.838 21.796H111.951L112.599 18.475H126.639L125.991 21.796H121.104L118.647 34H114.381L116.838 21.796ZM128.834 18.475H133.1L129.995 34H125.729L128.834 18.475ZM152.069 18.475L148.991 34H145.454L140.054 25.252L138.326 34H134.114L137.219 18.475H140.729L146.129 27.25L147.884 18.475H152.069ZM160.739 34.297C158.687 34.297 157.085 33.802 155.933 32.812C154.781 31.822 154.205 30.463 154.205 28.735C154.205 28.195 154.259 27.646 154.367 27.088L156.095 18.475H160.361L158.66 27.034C158.57 27.52 158.525 27.916 158.525 28.222C158.525 29.068 158.759 29.707 159.227 30.139C159.695 30.571 160.37 30.787 161.252 30.787C162.242 30.787 163.016 30.499 163.574 29.923C164.132 29.329 164.546 28.366 164.816 27.034L166.544 18.475H170.729L168.974 27.304C168.056 31.966 165.311 34.297 160.739 34.297ZM178.304 21.742L177.737 24.577H184.811L184.19 27.682H177.116L176.495 30.733H184.811L184.163 34H171.635L174.74 18.475H186.944L186.323 21.742H178.304ZM222.296 18.475L214.007 34H209.417L208.256 24.415L203.072 34H198.509L196.538 18.475H200.75L201.992 28.6L207.446 18.475H211.388L212.549 28.762L218.057 18.475H222.296ZM224.969 18.475H229.235L226.13 34H221.864L224.969 18.475ZM235.622 21.796H230.735L231.383 18.475H245.423L244.775 21.796H239.888L237.431 34H233.165L235.622 21.796ZM262.469 18.475L259.391 34H255.098L256.34 27.844H250.022L248.78 34H244.514L247.619 18.475H251.885L250.697 24.415H257.015L258.203 18.475H262.469ZM282.997 26.035H286.858L285.562 32.542C284.752 33.118 283.816 33.559 282.754 33.865C281.71 34.153 280.585 34.297 279.379 34.297C277.777 34.297 276.382 34.018 275.194 33.46C274.024 32.884 273.115 32.083 272.467 31.057C271.837 30.031 271.522 28.843 271.522 27.493C271.522 25.711 271.936 24.118 272.764 22.714C273.61 21.292 274.789 20.185 276.301 19.393C277.813 18.583 279.541 18.178 281.485 18.178C284.581 18.178 286.849 19.114 288.289 20.986L285.211 23.416C284.293 22.246 282.961 21.661 281.215 21.661C280.135 21.661 279.181 21.904 278.353 22.39C277.543 22.876 276.913 23.542 276.463 24.388C276.031 25.234 275.815 26.179 275.815 27.223C275.815 28.303 276.175 29.167 276.895 29.815C277.615 30.463 278.632 30.787 279.946 30.787C280.756 30.787 281.485 30.661 282.133 30.409L282.997 26.035ZM297.096 34.297C295.512 34.297 294.135 34.009 292.965 33.433C291.795 32.857 290.895 32.056 290.265 31.03C289.635 30.004 289.32 28.816 289.32 27.466C289.32 25.702 289.734 24.118 290.562 22.714C291.408 21.292 292.569 20.185 294.045 19.393C295.539 18.583 297.222 18.178 299.094 18.178C300.696 18.178 302.082 18.466 303.252 19.042C304.422 19.618 305.322 20.419 305.952 21.445C306.582 22.471 306.897 23.659 306.897 25.009C306.897 26.773 306.483 28.366 305.655 29.788C304.827 31.192 303.666 32.299 302.172 33.109C300.678 33.901 298.986 34.297 297.096 34.297ZM297.474 30.814C298.518 30.814 299.418 30.562 300.174 30.058C300.948 29.554 301.542 28.879 301.956 28.033C302.37 27.187 302.577 26.26 302.577 25.252C302.577 24.172 302.235 23.308 301.551 22.66C300.885 21.994 299.949 21.661 298.743 21.661C297.699 21.661 296.79 21.913 296.016 22.417C295.242 22.921 294.648 23.605 294.234 24.469C293.82 25.315 293.613 26.242 293.613 27.25C293.613 28.33 293.955 29.194 294.639 29.842C295.323 30.49 296.268 30.814 297.474 30.814ZM316.423 34.297C314.839 34.297 313.462 34.009 312.292 33.433C311.122 32.857 310.222 32.056 309.592 31.03C308.962 30.004 308.647 28.816 308.647 27.466C308.647 25.702 309.061 24.118 309.889 22.714C310.735 21.292 311.896 20.185 313.372 19.393C314.866 18.583 316.549 18.178 318.421 18.178C320.023 18.178 321.409 18.466 322.579 19.042C323.749 19.618 324.649 20.419 325.279 21.445C325.909 22.471 326.224 23.659 326.224 25.009C326.224 26.773 325.81 28.366 324.982 29.788C324.154 31.192 322.993 32.299 321.499 33.109C320.005 33.901 318.313 34.297 316.423 34.297ZM316.801 30.814C317.845 30.814 318.745 30.562 319.501 30.058C320.275 29.554 320.869 28.879 321.283 28.033C321.697 27.187 321.904 26.26 321.904 25.252C321.904 24.172 321.562 23.308 320.878 22.66C320.212 21.994 319.276 21.661 318.07 21.661C317.026 21.661 316.117 21.913 315.343 22.417C314.569 22.921 313.975 23.605 313.561 24.469C313.147 25.315 312.94 26.242 312.94 27.25C312.94 28.33 313.282 29.194 313.966 29.842C314.65 30.49 315.595 30.814 316.801 30.814ZM339.449 26.035H343.31L342.014 32.542C341.204 33.118 340.268 33.559 339.206 33.865C338.162 34.153 337.037 34.297 335.831 34.297C334.229 34.297 332.834 34.018 331.646 33.46C330.476 32.884 329.567 32.083 328.919 31.057C328.289 30.031 327.974 28.843 327.974 27.493C327.974 25.711 328.388 24.118 329.216 22.714C330.062 21.292 331.241 20.185 332.753 19.393C334.265 18.583 335.993 18.178 337.937 18.178C341.033 18.178 343.301 19.114 344.741 20.986L341.663 23.416C340.745 22.246 339.413 21.661 337.667 21.661C336.587 21.661 335.633 21.904 334.805 22.39C333.995 22.876 333.365 23.542 332.915 24.388C332.483 25.234 332.267 26.179 332.267 27.223C332.267 28.303 332.627 29.167 333.347 29.815C334.067 30.463 335.084 30.787 336.398 30.787C337.208 30.787 337.937 30.661 338.585 30.409L339.449 26.035ZM348.526 18.475H352.792L350.335 30.679H357.922L357.274 34H345.421L348.526 18.475ZM366.249 21.742L365.682 24.577H372.756L372.135 27.682H365.061L364.44 30.733H372.756L372.108 34H359.58L362.685 18.475H374.889L374.268 21.742H366.249Z" fill="#222222"/>
</svg>
