<svg width="71" height="57" viewBox="0 0 71 57" fill="none" xmlns="http://www.w3.org/2000/svg">
<path d="M24.6559 39.1695L23.3333 40.4909C23.9012 40.7536 24.4874 40.9951 25.0826 41.2168L26.4493 39.8499C25.8373 39.6464 25.239 39.4216 24.6574 39.171L24.6559 39.1695ZM56.3058 30.0188C54.5307 26.1535 51.2492 22.961 47.125 20.8165L45.8282 22.1166C49.708 24.012 52.8209 26.8825 54.5428 30.3833C51.3661 36.8397 43.4594 41.1576 34.7144 41.1698H34.6734C32.2636 41.1698 29.9175 40.8432 27.7142 40.2342L26.3096 41.636C28.932 42.4698 31.7625 42.9194 34.6749 42.9194H34.719C44.2961 42.9042 52.9697 38.0168 56.3073 30.7509L56.4728 30.3833L56.3073 30.0188H56.3058ZM34.6734 17.8473H34.6294C25.0523 17.8655 16.3786 22.753 13.041 30.0173L12.8755 30.3818L13.041 30.7494C14.8161 34.6147 18.1006 37.8072 22.2248 39.9502L23.5186 38.6531C19.6388 36.7546 16.5259 33.8841 14.804 30.3833C17.9806 23.9285 25.8874 19.6121 34.6324 19.5969H34.6734C37.0863 19.5969 39.4323 19.9235 41.6357 20.5325L43.0372 19.1307C40.4148 18.2968 37.5843 17.8473 34.6719 17.8473H34.6734ZM44.2657 19.5529L42.9021 20.9168C43.514 21.1203 44.1108 21.3481 44.6939 21.5957L46.015 20.2758C45.4471 20.0131 44.8609 19.7716 44.2657 19.5529Z" fill="#959595"/>
<path d="M40.5163 23.3011L39.2742 24.5435C39.7313 24.905 40.1458 25.3196 40.5103 25.7798L41.7524 24.5374C41.3819 24.0848 40.9658 23.6717 40.5163 23.3011ZM28.8361 34.9882L27.594 36.2306C27.9645 36.6801 28.3775 37.0932 28.827 37.4669L30.0722 36.2245C29.6151 35.863 29.2006 35.4469 28.8361 34.9882ZM42.4463 25.4943L41.1723 26.7716C41.7691 27.8408 42.1108 29.0741 42.1108 30.3832C42.1108 34.487 38.7731 37.8223 34.6732 37.8223C33.3612 37.8223 32.1282 37.4805 31.0592 36.8836L29.7852 38.1609C31.2019 39.0555 32.8783 39.5719 34.6732 39.5719C39.7389 39.5719 43.86 35.4499 43.86 30.3832C43.86 28.588 43.3407 26.9113 42.4463 25.4943ZM34.6732 21.1976C29.6075 21.1976 25.4863 25.3196 25.4863 30.3832C25.4863 32.1784 26.0057 33.8582 26.9 35.2752L28.1741 33.998C27.5758 32.9287 27.2356 31.6955 27.2356 30.3832C27.2356 26.281 30.5733 22.9473 34.6732 22.9473C35.9852 22.9473 37.2182 23.289 38.2872 23.8859L39.5612 22.6086C38.1445 21.7171 36.468 21.1976 34.6732 21.1976ZM40.5163 23.3011L39.2742 24.5435C39.7313 24.905 40.1458 25.3196 40.5103 25.7798L41.7524 24.5374C41.3819 24.0848 40.9658 23.6717 40.5163 23.3011Z" fill="#959595"/>
<path d="M50.0994 16.1888L46.0132 20.2758L44.6921 21.5956L41.7508 24.5375L40.5086 25.7799L30.069 36.2246L28.8239 37.4669L26.4459 39.8484L25.0793 41.2153L20.4798 45.8157C20.3082 45.9843 20.0834 46.0724 19.8617 46.0724C19.64 46.0724 19.4123 45.9843 19.2437 45.8157C18.9005 45.474 18.9005 44.9211 19.2437 44.5794L23.33 40.4893L24.6526 39.168L28.8315 34.9883L39.2711 24.5436L48.8603 14.9525C49.0319 14.7809 49.2567 14.6958 49.4784 14.6958C49.7001 14.6958 49.9278 14.7809 50.0964 14.9525C50.4411 15.2942 50.4411 15.847 50.0964 16.1888H50.0994Z" fill="#959595"/>
</svg>
