<svg width="431" height="346" viewBox="0 0 431 346" fill="none" xmlns="http://www.w3.org/2000/svg">
<path d="M149.67 237.766L141.642 245.786C145.089 247.381 148.647 248.847 152.261 250.193L160.557 241.896C156.842 240.66 153.21 239.296 149.68 237.775L149.67 237.766ZM341.798 182.219C331.023 158.756 311.103 139.377 286.067 126.36L278.195 134.251C301.747 145.757 320.643 163.182 331.097 184.432C311.813 223.623 263.815 249.834 210.73 249.907H210.481C195.852 249.907 181.61 247.925 168.235 244.228L159.709 252.738C175.628 257.799 192.81 260.528 210.49 260.528H210.757C268.894 260.436 321.547 230.768 341.808 186.663L342.812 184.432L341.808 182.219H341.798ZM210.481 108.336H210.213C152.076 108.447 99.4238 138.114 79.1629 182.21L78.1582 184.423L79.1629 186.654C89.9386 210.117 109.877 229.496 134.913 242.504L142.766 234.631C119.215 223.107 100.318 205.682 89.8649 184.432C109.149 145.25 157.146 119.049 210.232 118.957H210.481C225.128 118.957 239.37 120.939 252.745 124.636L261.253 116.126C245.334 111.065 228.151 108.336 210.472 108.336H210.481ZM268.71 118.689L260.432 126.968C264.147 128.204 267.77 129.586 271.309 131.089L279.329 123.078C275.882 121.483 272.323 120.017 268.71 118.689Z" fill="#959595"/>
<path d="M245.951 141.442L238.411 148.984C241.186 151.178 243.702 153.695 245.915 156.488L253.455 148.947C251.206 146.199 248.68 143.692 245.951 141.442ZM175.048 212.385L167.507 219.926C169.756 222.655 172.264 225.163 174.992 227.431L182.551 219.889C179.776 217.695 177.26 215.169 175.048 212.385ZM257.667 154.755L249.934 162.508C253.556 168.999 255.63 176.485 255.63 184.432C255.63 209.342 235.369 229.588 210.481 229.588C202.517 229.588 195.032 227.514 188.542 223.89L180.809 231.644C189.409 237.074 199.585 240.209 210.481 240.209C241.232 240.209 266.249 215.187 266.249 184.432C266.249 173.535 263.097 163.357 257.667 154.755ZM210.481 128.674C179.73 128.674 154.713 153.695 154.713 184.432C154.713 195.329 157.865 205.526 163.295 214.127L171.029 206.374C167.397 199.883 165.332 192.397 165.332 184.432C165.332 159.531 185.593 139.294 210.481 139.294C218.445 139.294 225.93 141.369 232.42 144.992L240.153 137.238C231.553 131.827 221.377 128.674 210.481 128.674ZM245.951 141.442L238.411 148.984C241.186 151.178 243.702 153.695 245.915 156.488L253.455 148.947C251.206 146.199 248.68 143.692 245.951 141.442Z" fill="#959595"/>
</svg>
