<svg width="54" height="54" viewBox="0 0 54 54" fill="none" xmlns="http://www.w3.org/2000/svg">
<path d="M53.4052 26.7026C53.4052 41.4503 41.4503 53.4052 26.7026 53.4052C11.9549 53.4052 0 41.4503 0 26.7026C0.001344 11.9549 11.9562 0 26.7039 0C41.4517 0 53.4052 11.9549 53.4052 26.7026Z" fill="#959595"/>
<path d="M34.6151 24.6308L34.1702 28.2032C34.0949 28.7999 33.5896 29.2488 32.9902 29.2488H27.2042V44.1847C26.5941 44.2398 25.9758 44.268 25.3509 44.268C23.9531 44.268 22.589 44.1282 21.2705 43.8621V29.2488H16.8205C16.4119 29.2488 16.0786 28.9142 16.0786 28.5042V24.0341C16.0786 23.6242 16.4119 23.2895 16.8205 23.2895H21.2705V16.5857C21.2705 12.4717 24.5915 9.13721 28.6894 9.13721H33.8812C34.2898 9.13721 34.6231 9.47186 34.6231 9.88178V14.3519C34.6231 14.7618 34.2898 15.0965 33.8812 15.0965H30.1718C28.5335 15.0965 27.2056 16.4298 27.2056 18.0762V23.2909H33.4364C34.1514 23.2909 34.7038 23.9199 34.6164 24.6322L34.6151 24.6308Z" fill="#222222"/>
</svg>
