<svg width="54" height="54" viewBox="0 0 54 54" fill="none" xmlns="http://www.w3.org/2000/svg">
<g clip-path="url(#clip0_1010_385)">
<path d="M53.4092 26.6732C53.4092 41.3348 41.4531 53.2199 26.7039 53.2199C11.9561 53.2199 0 41.3348 0 26.6732C0 12.013 11.9561 0.12793 26.7053 0.12793C41.4544 0.12793 53.4105 12.013 53.4105 26.6746L53.4092 26.6732Z" fill="#959595"/>
<path d="M19.1537 41.5864C15.046 41.5864 11.7031 38.2634 11.7031 34.1801V19.1685C11.7031 15.0852 15.046 11.7622 19.1537 11.7622H34.255C38.3627 11.7622 41.7055 15.0852 41.7055 19.1685V34.1801C41.7055 38.2634 38.3627 41.5864 34.255 41.5864H19.1537ZM19.6577 15.0652C17.1039 15.0652 15.0272 17.1295 15.0272 19.6682V33.6791C15.0272 36.2178 17.1039 38.2821 19.6577 38.2821H33.7523C36.3062 38.2821 38.3828 36.2178 38.3828 33.6791V19.6682C38.3828 17.1295 36.3062 15.0652 33.7523 15.0652H19.6577Z" fill="#222222"/>
<path d="M26.7048 34.2777C22.4869 34.2777 19.0566 30.8665 19.0566 26.675C19.0566 22.4835 22.4882 19.0723 26.7048 19.0723C30.9213 19.0723 34.3529 22.4835 34.3529 26.675C34.3529 30.8665 30.9213 34.2777 26.7048 34.2777ZM26.7048 22.2737C24.2638 22.2737 22.2772 24.2472 22.2772 26.675C22.2772 29.1027 24.2625 31.0762 26.7048 31.0762C29.1471 31.0762 31.1323 29.1027 31.1323 26.675C31.1323 24.2472 29.1471 22.2737 26.7048 22.2737Z" fill="#222222"/>
<path d="M34.7585 20.9481C33.7369 20.9481 32.9062 20.1223 32.9062 19.1068C32.9062 18.0914 33.7369 17.2656 34.7585 17.2656C35.78 17.2656 36.6107 18.0914 36.6107 19.1068C36.6107 20.1223 35.78 20.9481 34.7585 20.9481Z" fill="#222222"/>
</g>
<defs>
<clipPath id="clip0_1010_385">
<rect width="53.76" height="53.76" fill="white"/>
</clipPath>
</defs>
</svg>
