<svg width="54" height="54" viewBox="0 0 54 54" fill="none" xmlns="http://www.w3.org/2000/svg">
<path d="M53.4038 26.7026C53.4038 41.4503 41.449 53.4052 26.7012 53.4052C11.9549 53.4038 0 41.449 0 26.7026C0 11.9549 11.9549 0 26.7026 0C41.4503 0 53.4052 11.9549 53.4052 26.7026H53.4038Z" fill="#959595"/>
<path d="M17.2445 19.5641C19.1439 19.5641 20.6838 18.0243 20.6838 16.1248C20.6838 14.2254 19.1439 12.6855 17.2445 12.6855C15.345 12.6855 13.8052 14.2254 13.8052 16.1248C13.8052 18.0243 15.345 19.5641 17.2445 19.5641Z" fill="#222222"/>
<path d="M19.8529 21.8574H14.6341C14.4924 21.8574 14.3774 21.9724 14.3774 22.1141V38.7959C14.3774 38.9376 14.4924 39.0526 14.6341 39.0526H19.8529C19.9947 39.0526 20.1096 38.9376 20.1096 38.7959V22.1141C20.1096 21.9724 19.9947 21.8574 19.8529 21.8574Z" fill="#222222"/>
<path d="M39.5994 28.1608V37.9048C39.5994 38.5352 39.0833 39.0513 38.453 39.0513H35.0137C34.3834 39.0513 33.8673 38.5352 33.8673 37.9048V29.8798C33.8673 28.2979 32.5838 27.0144 31.0019 27.0144C29.42 27.0144 28.1365 28.2979 28.1365 29.8798V37.9048C28.1365 38.5352 27.6204 39.0513 26.99 39.0513H23.5507C22.9204 39.0513 22.4043 38.5352 22.4043 37.9048V23.0012C22.4043 22.3709 22.9204 21.8548 23.5507 21.8548H26.99C27.6204 21.8548 28.1365 22.3709 28.1365 23.0012V23.735C29.2829 22.2499 31.1806 21.2822 33.2947 21.2822C36.4585 21.2822 39.5994 23.5751 39.5994 28.1608Z" fill="#222222"/>
</svg>
