<svg width="126" height="35" viewBox="0 0 126 35" fill="none" xmlns="http://www.w3.org/2000/svg">
<path d="M9.46781 27.216C7.64381 27.216 5.91581 26.988 4.28381 26.532C2.65181 26.052 1.22381 25.356 -0.000191435 24.444L3.31181 19.368C4.22381 20.04 5.25581 20.556 6.40781 20.916C7.58381 21.276 8.75981 21.456 9.93581 21.456C10.9198 21.456 11.7478 21.348 12.4198 21.132C13.0918 20.892 13.5958 20.556 13.9318 20.124C14.2918 19.668 14.4718 19.128 14.4718 18.504C14.4718 17.808 14.1958 17.28 13.6438 16.92C13.1158 16.56 12.2758 16.38 11.1238 16.38H8.06381L8.96381 11.88L17.0638 4.57201L17.4598 7.02H4.49981L5.61581 1.512H23.8318L22.9678 5.976L14.8678 13.284L11.6278 11.376H13.2118C14.9638 11.376 16.4638 11.652 17.7118 12.204C18.9838 12.732 19.9558 13.5 20.6278 14.508C21.3238 15.516 21.6718 16.704 21.6718 18.072C21.6718 19.824 21.1438 21.396 20.0878 22.788C19.0558 24.156 17.6158 25.236 15.7678 26.028C13.9198 26.82 11.8198 27.216 9.46781 27.216ZM23.6712 26.712L28.7112 1.512H39.6552C42.2952 1.512 44.5512 1.944 46.4232 2.808C48.3192 3.672 49.7712 4.896 50.7792 6.48C51.7872 8.04 52.2912 9.91201 52.2912 12.096C52.2912 14.328 51.9072 16.344 51.1392 18.144C50.3712 19.92 49.2912 21.456 47.8992 22.752C46.5072 24.024 44.8512 25.008 42.9312 25.704C41.0112 26.376 38.8872 26.712 36.5592 26.712H23.6712ZM31.9512 21.024H36.7752C38.5752 21.024 40.0872 20.652 41.3112 19.908C42.5352 19.164 43.4712 18.156 44.1192 16.884C44.7672 15.588 45.0912 14.136 45.0912 12.528C45.0912 11.4 44.8512 10.44 44.3712 9.648C43.9152 8.856 43.2192 8.256 42.2832 7.848C41.3712 7.416 40.2312 7.2 38.8632 7.2H34.6872L31.9512 21.024ZM54.2397 19.08L55.2837 13.824H65.7597L64.7157 19.08H54.2397ZM76.8727 12.564H88.5007L87.3847 18.072H75.7927L76.8727 12.564ZM74.5687 26.712H67.4407L72.4807 1.512H92.2087L91.0927 7.02H78.4927L74.5687 26.712ZM90.2144 26.712L95.5424 4.05312e-06H102.382L97.0544 26.712H90.2144ZM103.768 34.02C102.736 34.02 101.716 33.864 100.708 33.552C99.6756 33.24 98.8596 32.832 98.2596 32.328L101.32 27.504C101.728 27.84 102.184 28.104 102.688 28.296C103.192 28.512 103.744 28.62 104.344 28.62C105.016 28.62 105.592 28.452 106.072 28.116C106.552 27.78 107.008 27.252 107.44 26.532L108.844 24.264L109.42 23.58L119.248 7.2H125.944L113.452 27.576C112.444 29.232 111.46 30.528 110.5 31.464C109.54 32.4 108.52 33.06 107.44 33.444C106.36 33.828 105.136 34.02 103.768 34.02ZM107.368 27.54L102.796 7.2H109.6L112.84 22.968L107.368 27.54Z" fill="#959595"/>
</svg>
